<svg xmlns="http://www.w3.org/2000/svg" width="32" height="32" viewBox="0 0 40 40">
  <defs>
    <linearGradient id="g" x1="0" y1="0" x2="1" y2="1">
      <stop offset="0%" stop-color="#7C3AED" />
      <stop offset="100%" stop-color="#3B82F6" />
    </linearGradient>
  </defs>
  <rect x="2" y="2" width="36" height="36" rx="10" fill="url(#g)"/>
  <!-- 3x3 grid -->
  <g>
    <rect x="7" y="7" width="7" height="7" rx="2" fill="rgba(255,255,255,0.75)" />
    <rect x="17" y="7" width="7" height="7" rx="2" fill="rgba(255,255,255,0.75)" />
    <rect x="27" y="7" width="7" height="7" rx="2" fill="rgba(255,255,255,0.75)" />

    <rect x="7" y="17" width="7" height="7" rx="2" fill="rgba(255,255,255,0.75)" />
    <rect x="17" y="17" width="7" height="7" rx="2" fill="#ffffff" />
    <rect x="27" y="17" width="7" height="7" rx="2" fill="rgba(255,255,255,0.75)" />

    <rect x="7" y="27" width="7" height="7" rx="2" fill="rgba(255,255,255,0.75)" />
    <rect x="17" y="27" width="7" height="7" rx="2" fill="rgba(255,255,255,0.75)" />
    <rect x="27" y="27" width="7" height="7" rx="2" fill="rgba(255,255,255,0.75)" />
  </g>
  <!-- Upward arrow -->
  <path d="M28 28 L28 18 L30.5 20.5 L32 19 L26 13 L20 19 L21.5 20.5 L24 18 L24 28 Z" fill="#ffffff" opacity="0.95" />
</svg>
